<svg xmlns="http://www.w3.org/2000/svg" xmlns:xlink="http://www.w3.org/1999/xlink" version="1.1" x="0px" y="0px" viewBox="0 0 60 75" style="enable-background:new 0 0 60 60;" xml:space="preserve"><path d="M30,55.5c-10.7,0-16.8-2.5-18.1-7.5c-2.5-9.8-3.3-18.4-3.3-18.5c0-4.3,9.4-7.6,21.4-7.6s21.4,3.3,21.4,7.6l0,0  c0,0.1-0.8,8.7-3.3,18.5C47.3,51.4,43.4,55.5,30,55.5z M30,22.9c-12.2,0-20.4,3.4-20.4,6.6c0,0,0.8,8.5,3.3,18.3  c1.2,4.5,7,6.7,17.1,6.7c10.1,0,16-2.3,17.1-6.7c2.4-9.5,3.2-17.8,3.3-18.3C50.4,26.3,42.2,22.9,30,22.9z"/><path d="M49.2,29.8c0,3.2-8.6,5.8-19.2,5.8S10.8,33,10.8,29.8S19.4,24,30,24S49.2,26.7,49.2,29.8z"/><path d="M42.8,19.7c-1.9,0-3.6-1.2-4.2-3.1c-0.1-0.3-0.5-0.6-0.8-0.7c-2.4-0.3-4.8-0.5-7.8-0.5c-3,0-5.4,0.2-7.7,0.5  c-0.5,0.1-0.7,0.4-0.8,0.7c-0.6,1.8-2.2,3-4.2,3c-2.4,0-4.4-2-4.4-4.4c0-0.9,0.6-1.7,1.1-2.4c0.2-0.3,0.5-0.7,0.5-0.8  c0-0.1-0.3-0.6-0.5-0.8c-0.5-0.6-1.1-1.5-1.1-2.4c0-2.4,2-4.4,4.4-4.4c1.9,0,3.6,1.2,4.2,3.1c0.1,0.3,0.5,0.6,0.8,0.7  c2.8,0.4,5.5,0.6,7.7,0.5c3.1,0,5.4-0.2,7.7-0.5c0.5-0.1,0.7-0.4,0.8-0.7c0.7-1.9,2.3-3,4.3-3c2.4,0,4.4,2,4.4,4.4  c0,0.9-0.6,1.7-1.1,2.4c-0.2,0.3-0.5,0.7-0.5,0.8c0,0.1,0.3,0.6,0.5,0.8c0.5,0.6,1.1,1.5,1.1,2.4C47.2,17.7,45.2,19.7,42.8,19.7z   M30,14.5c3.1,0,5.5,0.2,8,0.5c0.7,0.1,1.3,0.7,1.6,1.3c0.5,1.4,1.7,2.4,3.2,2.4c1.9,0,3.4-1.5,3.4-3.4c0-0.6-0.5-1.2-0.9-1.8  c-0.4-0.5-0.7-1-0.7-1.4c0-0.5,0.3-0.9,0.7-1.4c0.4-0.6,0.9-1.2,0.9-1.8c0-1.9-1.5-3.4-3.4-3.4c-1.5,0-2.8,0.9-3.3,2.4  c-0.3,0.7-0.9,1.2-1.6,1.3c-2.4,0.4-4.8,0.5-7.9,0.5c-2.3,0.1-5-0.1-7.9-0.5c-0.7-0.1-1.3-0.7-1.6-1.3c-0.5-1.4-1.7-2.4-3.2-2.4  c-1.9,0-3.4,1.5-3.4,3.4c0,0.6,0.5,1.2,0.9,1.8c0.4,0.5,0.7,1,0.7,1.4c0,0.5-0.3,0.9-0.7,1.4c-0.4,0.6-0.9,1.2-0.9,1.8  c0,1.9,1.5,3.4,3.4,3.4c1.5,0,2.8-0.9,3.2-2.3c0.3-0.7,0.9-1.2,1.6-1.3C24.5,14.7,26.9,14.5,30,14.5z"/><text x="0" y="75" fill="#000000" font-size="5px" font-weight="bold" font-family="'Helvetica Neue', Helvetica, Arial-Unicode, Arial, Sans-serif">Created by KEN MURRAY</text><text x="0" y="80" fill="#000000" font-size="5px" font-weight="bold" font-family="'Helvetica Neue', Helvetica, Arial-Unicode, Arial, Sans-serif">from the Noun Project</text></svg>